<?xml version="1.0" encoding="us-ascii" standalone="no"?><svg xmlns="http://www.w3.org/2000/svg" xmlns:xlink="http://www.w3.org/1999/xlink" contentStyleType="text/css" height="187px" preserveAspectRatio="none" style="width:2092px;height:187px;background:#FFFFFF;" version="1.1" viewBox="0 0 2092 187" width="2092px" zoomAndPan="magnify"><defs/><g><!--cluster Investment Management--><g id="cluster_Investment Management"><rect fill="none" height="91" rx="2.5" ry="2.5" style="stroke:#181818;stroke-width:1.0;" width="1158" x="14" y="90"/><text fill="#000000" font-family="sans-serif" font-size="14" font-weight="bold" lengthAdjust="spacing" textLength="174" x="506" y="106.5332">Investment Management</text></g><!--cluster Person Management--><g id="cluster_Person Management"><rect fill="none" height="76" rx="2.5" ry="2.5" style="stroke:#181818;stroke-width:1.0;" width="906" x="1180" y="97.5"/><text fill="#000000" font-family="sans-serif" font-size="14" font-weight="bold" lengthAdjust="spacing" textLength="145" x="1560.5" y="114.0332">Person Management</text></g><!--entity User--><g id="elem_User"><ellipse cx="1169" cy="12.5" fill="#F1F1F1" rx="8" ry="8" style="stroke:#181818;stroke-width:0.5;"/><path d="M1169,20.5 L1169,47.5 M1156,28.5 L1182,28.5 M1169,47.5 L1156,62.5 M1169,47.5 L1182,62.5 " fill="none" style="stroke:#181818;stroke-width:0.5;"/><text fill="#000000" font-family="sans-serif" font-size="14" lengthAdjust="spacing" textLength="29" x="1154.5" y="78.5332">User</text></g><g id="elem_UC1"><ellipse cx="1065.837" cy="145.4674" fill="#F1F1F1" rx="97.837" ry="21.9674" style="stroke:#181818;stroke-width:0.5;"/><text fill="#000000" font-family="sans-serif" font-size="14" lengthAdjust="spacing" textLength="156" x="987.837" y="149.1959">Create a new investment</text></g><g id="elem_UC2"><ellipse cx="837.847" cy="145.6694" fill="#F1F1F1" rx="111.347" ry="24.6694" style="stroke:#181818;stroke-width:0.5;"/><text fill="#000000" font-family="sans-serif" font-size="14" lengthAdjust="spacing" textLength="186" x="744.847" y="149.3979">Get investments by person ID</text></g><g id="elem_UC3"><ellipse cx="583.7727" cy="145.2545" fill="#F1F1F1" rx="124.2727" ry="27.2545" style="stroke:#181818;stroke-width:0.5;"/><text fill="#000000" font-family="sans-serif" font-size="14" lengthAdjust="spacing" textLength="214" x="476.7727" y="148.9831">Calculate total invested by person</text></g><g id="elem_UC4"><ellipse cx="328.7614" cy="145.3523" fill="#F1F1F1" rx="112.2614" ry="24.8523" style="stroke:#181818;stroke-width:0.5;"/><text fill="#000000" font-family="sans-serif" font-size="14" lengthAdjust="spacing" textLength="188" x="234.7614" y="149.0808">Update an existing investment</text></g><g id="elem_UC5"><ellipse cx="109.8193" cy="145.4639" fill="#F1F1F1" rx="87.8193" ry="19.9639" style="stroke:#181818;stroke-width:0.5;"/><text fill="#000000" font-family="sans-serif" font-size="14" lengthAdjust="spacing" textLength="133" x="43.3193" y="149.1924">Delete an investment</text></g><g id="elem_UC6"><ellipse cx="1989.8923" cy="145.3785" fill="#F1F1F1" rx="87.3923" ry="19.8785" style="stroke:#181818;stroke-width:0.5;"/><text fill="#000000" font-family="sans-serif" font-size="14" lengthAdjust="spacing" textLength="132" x="1923.8923" y="149.107">Create a new person</text></g><g id="elem_UC7"><ellipse cx="1811.0109" cy="145.5022" fill="#F1F1F1" rx="73.0109" ry="17.0022" style="stroke:#181818;stroke-width:0.5;"/><text fill="#000000" font-family="sans-serif" font-size="14" lengthAdjust="spacing" textLength="96" x="1760.0109" y="150.0188">Get all persons</text></g><g id="elem_UC8"><ellipse cx="1643.1203" cy="145.3241" fill="#F1F1F1" rx="77.1203" ry="17.8241" style="stroke:#181818;stroke-width:0.5;"/><text fill="#000000" font-family="sans-serif" font-size="14" lengthAdjust="spacing" textLength="107" x="1587.2783" y="149.6856">Get person by ID</text></g><g id="elem_UC9"><ellipse cx="1462.1163" cy="145.6233" fill="#F1F1F1" rx="86.1163" ry="19.6233" style="stroke:#181818;stroke-width:0.5;"/><text fill="#000000" font-family="sans-serif" font-size="14" lengthAdjust="spacing" textLength="129" x="1397.6163" y="149.3518">Update person by ID</text></g><g id="elem_UC10"><ellipse cx="1272.9267" cy="145.2853" fill="#F1F1F1" rx="84.4267" ry="19.2853" style="stroke:#181818;stroke-width:0.5;"/><text fill="#000000" font-family="sans-serif" font-size="14" lengthAdjust="spacing" textLength="125" x="1210.4267" y="149.0139">Delete person by ID</text></g><polygon fill="#181818" points="1087.5471,123.4759,1096.7822,120.0536,1091.1258,119.9841,1091.1953,114.3276,1087.5471,123.4759" style="stroke:#181818;stroke-width:1.0;"/><path d="M1154.2426,58.3992 C1136.7761,75.4418 1111.8385,99.7741 1091.8415,119.2857 " fill="none" style="stroke:#181818;stroke-width:1.0;"/><polygon fill="#181818" points="884.217,120.9589,894.0622,120.692,888.7293,118.8051,890.6161,113.4722,884.217,120.9589" style="stroke:#181818;stroke-width:1.0;"/><path d="M1154.4649,46.1167 C1119.9473,51.3719 1030.5785,66.3257 959,90 C933.6261,98.3923 911.8181,107.7846 889.6318,118.3744 " fill="none" style="stroke:#181818;stroke-width:1.0;"/><polygon fill="#181818" points="639.2063,117.9096,649.0548,117.9837,643.7905,115.9134,645.8608,110.649,639.2063,117.9096" style="stroke:#181818;stroke-width:1.0;"/><path d="M1154.3336,43.9938 C1097.3667,44.2826 885.6415,48.2704 718,90 C691.314,96.6427 668.4419,105.1784 644.7073,115.5141 " fill="none" style="stroke:#181818;stroke-width:1.0;"/><polygon fill="#181818" points="372.5462,120.4891,382.3853,120.051,377.0204,118.2572,378.8142,112.8923,372.5462,120.4891" style="stroke:#181818;stroke-width:1.0;"/><path d="M1154.3869,44.2311 C1065.0136,45.7501 591.3666,55.3446 451,90 C423.8614,96.7003 400.6098,106.4897 377.9152,117.8108 " fill="none" style="stroke:#181818;stroke-width:1.0;"/><polygon fill="#181818" points="136.3918,125.4024,146.103,123.7613,140.5586,122.6388,141.6812,117.0944,136.3918,125.4024" style="stroke:#181818;stroke-width:1.0;"/><path d="M1154.4173,44.2962 C1041.0792,46.6512 302.8738,62.9567 208,90 C181.9762,97.4179 160.321,109.5316 141.392,122.086 " fill="none" style="stroke:#181818;stroke-width:1.0;"/><polygon fill="#181818" points="1963.4644,125.2575,1958.1864,116.9423,1959.3014,122.4882,1953.7555,123.6032,1963.4644,125.2575" style="stroke:#181818;stroke-width:1.0;"/><path d="M1183.7831,44.0468 C1274.1895,44.4663 1753.2062,48.6374 1893,90 C1918.5611,97.5631 1939.7556,109.4861 1958.4688,121.9343 " fill="none" style="stroke:#181818;stroke-width:1.0;"/><polygon fill="#181818" points="1792.6089,128.2753,1788.1653,119.4859,1788.7351,125.1139,1783.1071,125.6838,1792.6089,128.2753" style="stroke:#181818;stroke-width:1.0;"/><path d="M1183.6066,44.2168 C1261.0264,45.5136 1623.8337,53.4747 1729,90 C1753.0597,98.3562 1772.2423,111.6541 1787.9604,124.4817 " fill="none" style="stroke:#181818;stroke-width:1.0;"/><polygon fill="#181818" points="1622.1375,127.4871,1617.3731,118.8673,1618.1499,124.4705,1612.5467,125.2474,1622.1375,127.4871" style="stroke:#181818;stroke-width:1.0;"/><path d="M1183.5406,44.8589 C1245.2924,48.6383 1485.8919,64.7323 1557,90 C1581.151,98.5819 1600.7486,111.3067 1617.3524,123.8672 " fill="none" style="stroke:#181818;stroke-width:1.0;"/><polygon fill="#181818" points="1434.4038,125.7774,1428.9689,117.5639,1430.1889,123.0876,1424.6652,124.3076,1434.4038,125.7774" style="stroke:#181818;stroke-width:1.0;"/><path d="M1183.8489,45.9335 C1217.4121,50.6263 1301.3125,64.1771 1367,90 C1390.8897,99.3915 1410.9441,110.8061 1429.346,122.5496 " fill="none" style="stroke:#181818;stroke-width:1.0;"/><polygon fill="#181818" points="1253.5166,125.6723,1249.8243,116.5417,1249.9211,122.1978,1244.265,122.2946,1253.5166,125.6723" style="stroke:#181818;stroke-width:1.0;"/><path d="M1183.9007,58.3992 C1202.2107,76.0931 1229.0113,101.9917 1249.202,121.5029 " fill="none" style="stroke:#181818;stroke-width:1.0;"/><!--SRC=[ZPAxRiCm34LtVGNhFK3UZwLB0XGP2dJn1p0sOGYG9KEasmP5_xrM8gHIxQ6QT8LpHV9AJvt7faKmU7Mz0BSaQ54fSHs8WuiJSItKsbCbsbcbi1BdeMJoIeL3j8qXACxsdLXQiWAlmmKDXMq1Nmg6rJDLo0Drz8H2W63f0_J3KW0obCT53h-G90p3vGeTUNOMpgVeMFwv7atLcr11dA29Rgf_hT6todrbLz_Qia2VcaNRPjpSEhUSoD3TCY8twZkBvktUz7zZoHhTZYD1OoB34TgDeHZKCFSZg_tap1FWONBI2N0n3vE6hm2psVFj0HEnJCKg5UjKR5AnJSKk5VjK7BAYS_K3]--></g></svg>